<svg xmlns="http://www.w3.org/2000/svg" viewBox="0 0 1000 724.2"><defs><style>.cls-1{fill:#231f20;}.cls-2{fill:#e41b45;}.cls-3{fill:#211e1f;}</style></defs><g id="Layer_2" data-name="Layer 2"><g id="Layer_2-2" data-name="Layer 2"><path class="cls-1" d="M190.54,372.66c5.19,3.11,6.81,8.19,5.3,14A94.46,94.46,0,0,1,186.42,409c-3.8,6.53-8.13,7.91-15,5.62-3.78-1.32-7.64-2.89-11.51-3.62-5.65-1-10.56.28-15.42,3.51-4.34,3.06-7.44,7.41-11.53,10.4-4,3.24-7.79,1.92-8.82-3.08-2.25-8.81.56-16.7,5.55-23.9a51.11,51.11,0,0,1,5-5.5,6.81,6.81,0,0,0,1.79-7.57c-4.06-11.88-7.87-23.83-11.59-35.53l-.08-.26c-.16-.51-.33-1-.49-1.52-.81-2.55-3.2-6.55-7.53-5.17-7.37,2.35-18.23,6.09-30.36,10.23-3.39,1.64-2.6,5-2.27,6l.08.25,10.12,31.79a5.79,5.79,0,0,0,5.6,4.39c3.2.38,6.66.67,9.42,2.32,5.45,3,7.07,8.11,5.3,14a92.86,92.86,0,0,1-9.16,22.24c-3.8,6.54-8.13,7.92-15.27,5.71-3.78-1.32-7.39-3-11.52-3.62-5.64-1-10.3.2-15.16,3.43-4.6,3.14-7.52,7.16-11.79,10.48-4,3.23-7.54,1.84-8.82-3.08-2-8.89.56-16.7,5.81-24a45.12,45.12,0,0,1,4.72-5.42c2.39-2.17,2.76-4.52,1.7-7.83L39.76,361c-3.41-10.68-6.81-21.36-10.29-32.3-2.67-8.39-5.6-16.7-8.1-25.43-1.3-4.07-4.07-4.87-7.82-2.56a31.08,31.08,0,0,1-4.17,2.73c-3.49,2.24-6.18,1.69-7.73-2.3a17.17,17.17,0,0,1-.59-13.26,39.24,39.24,0,0,1,17.1-22c25.19-15,37.66,5.66,44.88,27.45,3.57,10.35,6.81,20.52,10.13,30.95,0,0,1.7,5.34,6.54,3.8,15-4.78,29.33-9.06,30.6-9.46,4.42-2,2.87-6,2.47-8.07-.65-2-1.38-4.33-2-6.36-3-8.57-5.94-16.88-8.44-25.61-1-4.15-4.07-4.87-7.56-2.63a48.83,48.83,0,0,1-4.43,2.81c-3.49,2.23-5.93,1.6-7.73-2.3a18.73,18.73,0,0,1-.5-13c3.24-9.16,8.33-16.94,17.35-22.05,7.51-6.32,16.63-6.7,25.88-4,8,2.21,14,0,19.24-5.57a17,17,0,0,1,4.61-4c3.4-1.64,6-.51,7,3.39,2.09,8.3-.29,15.78-4.78,22.81a23.83,23.83,0,0,1-5.23,6.43c-2.65,2.24-3.19,4.94-2.14,8.24,4.95,14.67,10,29.6,14.68,44.35,2.27,7.12,4.2,14.07,6.47,21.19,3.4,10.69,7,21,10.38,31.72.89,2.79,2.47,4.25,5.68,4.63A21.78,21.78,0,0,1,190.54,372.66Z"/><path class="cls-1" d="M203.13,298c6.55-2.79,14.26-.64,20.5-3.65l39.28-7.82c3.94-.7,7.52-1.88,11.79-.74,4.54,1.09,11.84,7.11,11.44,14-.76,11-19.85,10.31-25.85,11.65l-38,7.32c-5.52,1-11.64,3.16-17.69-.37-6.63-3.7-9.91-14.5-3.2-19.5A5.11,5.11,0,0,1,203.13,298Z"/><path class="cls-1" d="M447.06,194.62c1.13,3.93-.35,8.6-2.19,12.24A79.06,79.06,0,0,1,419.1,235a56.4,56.4,0,0,1-27.33,9.51c.84,10.11,1.71,20.48,2.57,30.86.89,7.42,1.27,15.16,1.89,22.61,1,11.43,2.18,22.85,2.87,34.31.27,3.19,1.75,4.94,4.77,5.76,3,1.09,6.34,2.15,8.95,4.61,4.64,4.17,5.1,9.75,2.09,15.36a106.26,106.26,0,0,1-14.4,20c-5.41,5.81-10.2,6.21-16.7,2.2-3.39-2.13-6.82-4.79-10.7-6.34a21.47,21.47,0,0,0-16.32.29c-4.94,1.75-9.17,5.59-14.1,7.61-4.63,2.26-8,.13-8.2-5.21,0-9.38,4.5-16.72,11.5-22.66a37.09,37.09,0,0,1,6.05-4.52c2.55-1.56,3.7-3.79,3.41-7.25-1.44-17.29-2.91-34.85-4.35-52.14-1-11.7-1.67-23.16-2.91-34.84-.4-4.79-.8-9.58-1.23-14.63-3-.29-5.65-.34-7-.49-5.92-.31-24.25-1.73-34.78,6.92-3.23,3-6.8,5.12-11,5.75s-7.09-1.55-7.45-5.81a18.3,18.3,0,0,1,1.44-8.42c4.77-10.31,12.12-18.43,20.64-25.57,6.51-5.36,13.32-10.49,21.74-12.26,15.76-3.73,38-.5,52.14,2.07,10.5,3.95,28.13,3.28,28.13,3.28,6.31-1.33,9.4-2.93,13.81-7.85,2.46-2.62,8.44-7.94,12.63-9.09C441.94,187.82,445.84,189.64,447.06,194.62Z"/><path class="cls-1" d="M608.54,296c-3,11.19-8.17,21.83-13.86,31.93l-4,7.17a127.58,127.58,0,0,1-11.33,15.4,84.15,84.15,0,0,1-26,19,67.29,67.29,0,0,1-15.53,6.29,83.7,83.7,0,0,1-11.23,2.05c-.27,0-.54.26-.8.26h-1.07a82.14,82.14,0,0,1-24.29-.72,67.74,67.74,0,0,1-32.44-16c-1.86-1.89-3.72-3.5-5.57-5.39a103.78,103.78,0,0,1-12.15-16.37A98.49,98.49,0,0,1,438.24,295a86.76,86.76,0,0,1,3.4-26.14,140.19,140.19,0,0,1,13.59-31.93c1.35-2.39,3-4.78,4.33-7.17a104.48,104.48,0,0,1,11.06-15.14,75.39,75.39,0,0,1,17.46-14.54c2.68-1.59,5.63-3.16,8.85-4.74a55,55,0,0,1,15.26-6A89.9,89.9,0,0,1,523.68,187h.54a1.93,1.93,0,0,1,1.07-.25,92.4,92.4,0,0,1,24.28.71A69.48,69.48,0,0,1,565,192.39a60.42,60.42,0,0,1,17.26,11.34,47.43,47.43,0,0,1,5.3,5.11,80.55,80.55,0,0,1,12.16,16.65,94.51,94.51,0,0,1,12.2,44.4A85.7,85.7,0,0,1,608.54,296Zm-48.78-44.15c-2.88-7.77-6.55-15.54-12.38-21.72-.53-.54-1.06-.81-1.32-1.34-5.57-5.65-13.53-11-21.28-10.84a25.85,25.85,0,0,0-14.44,4.16c-6.17,3.42-11.83,10.58-15.61,16.43-13.23,19.65-14.24,46.07-5.59,68,4.19,10.17,9.72,20.09,17.13,28.16,6.09,6.72,14.58,14,24.47,12.73A30.77,30.77,0,0,0,546,339.86a65.18,65.18,0,0,0,18.38-30C569.61,290.66,566.83,270.08,559.76,251.88Z"/><path class="cls-1" d="M804.13,361c-20.29,23.17-27.34,27.63-37.9,32.15l0-.26a29.41,29.41,0,0,1-16.21,2.44c-9-1.19-18.5-14.83-18.5-14.83a74.23,74.23,0,0,1-10.11-17.22c-12.81,13.38-18.92,16.88-27.49,20.6l0-.27A27.71,27.71,0,0,1,678,386c-9-1.18-18.77-14.86-18.77-14.86-9.45-12-13.92-27.15-16.47-36.37-3.48-18.5,1.58-50.68-2.8-101.07-.36-5.43-2.15-10.24-3.9-15.32a48.29,48.29,0,0,1-2.25-5.42c-.87-3.61-.39-5.16,2.57-7.19,5.92-4.07,12.3-7.53,19.53-9.27,3.31-.64,6.44-1.85,9.91-1.66,6.39.58,10.54,3.82,13.58,9.34,2.58,4.91,5.22,19.53,4.92,34,4.15,46.05,2.24,64.64,3.35,76.63,1.55,14.75,8.19,25.59,11.72,27.4,2.92.38,7.43-1.17,11.78-7.6,2.55-5.05,4.7-9.07,6.28-12.9a15.79,15.79,0,0,1,1-3.37l0,.26c4.53-13.94,2.78-29.25-6.16-75.66A86,86,0,0,0,708.34,228a53.53,53.53,0,0,1-2.21-5.68c-.87-3.61-.66-5.2,2.57-7.2,5.92-4.06,12.3-7.53,19.53-9.27,3.31-.63,6.43-1.84,9.91-1.65,6.39.58,10.54,3.82,13.58,9.33,2.58,4.92,5.22,19.54,4.92,34,3.89,46,2.24,64.65,3.35,76.64,1.28,14.71,8.19,25.58,11.72,27.4,4.5.59,13.14-3.65,19-23.87,4.55-16.1,7-32.73-.62-58.51-5-17.09-17.62-31.68-17.62-31.68-.85-1.73-2-3.49-2.81-5.22-1.17-3.38-.93-5.24,1.8-7.57,5.7-4.36,11.88-8.39,18.92-10.69,3.08-.94,6-2.44,9.75-2.48,6.46,0,10.67,2.75,14,8,0,0,19,31.32,20.33,62.19C835.93,311.85,817.74,345.53,804.13,361Z"/><path class="cls-1" d="M995,431a73.54,73.54,0,0,1-26,13.81c-11.27,3.68-17.66-1.74-21.66-11.14-2.61-6.73-3.11-13.9-3.7-20.81a49.68,49.68,0,0,1,0-7c.35-6.34,1-12.59,1.56-18.84.47-3.22.43-6.59.64-9.89,1-9.21,2.32-18.6,3.9-27.9,1.19-6.35,1.45-13.27,2.13-19.78.83-8.71,1.4-17.49,2.31-26.45a17.15,17.15,0,0,0-2.5-11.45c-2.83-4.28-7-6.17-11.56-6.79-5.83-1-11.4-.29-17.12,1-6.12,18.22-27.52,79.76-29.29,87-.33,1-.74,2.29-1.06,3.3-1.14,3.56-.69,6.51,2.54,8.67a13.78,13.78,0,0,1,2.82,2.58c4.53,5.1,4.69,11.6-.06,16.8a26.74,26.74,0,0,1-4.6,3.86c-5.53,3.27-11,6.29-16.43,9.3-5.87,3.45-13.66,1.51-16.68-3.94-1-2.27-2.41-3.85-3.7-6-5.59-8.8-13.72-11.4-23.59-10.36-2.95.45-5.72,1.25-8.59,1.45-5.57.74-8.22-2.35-6.43-7.95,1-3.05,3.4-5.35,5.57-7.74,4.59-4.7,10.72-7.22,17-8.56a19.39,19.39,0,0,1,3.62-.8,7.08,7.08,0,0,0,5.59-5.22c.65-2.87,1.88-5.84,2.77-8.64,4.14-14.65,9.46-28.64,13.77-43,2.76-9.49,14-43.72,16.54-51.6.32-1,.65-2,1-3,.39-3-.46-3.8-3.33-3.6a49,49,0,0,0-6,.33c-2.87.2-5-1-7.29-2.62-3.06-1.82-3.43-4.18-1.27-7.41,3.41-4.52,8.19-7.19,13.23-8.94a70.87,70.87,0,0,1,34.58-2.93,25.72,25.72,0,0,1,14.1,6.76c3.24,3,4.55,6.78,4.52,11.26,0,0-.73,3.13-2.18,8.55a6.86,6.86,0,0,1,1.93-.78c11.17-5.12,22.78-8.12,35-5.9,16.24,2.68,28.17,11.83,31.58,29.18a92.49,92.49,0,0,1,1.19,22.53c-1.17,15.88-3.86,31.28-6,46.84a193.63,193.63,0,0,0-2.17,38.26,61.47,61.47,0,0,0,6.18,23.57C1000.72,423.62,1000.41,426.32,995,431Z"/><path class="cls-1" d="M318.63,436.33c11.48,7.2,17.88,17.88,18.15,31.76.27,11-4.27,20.29-10.14,29.36a80.43,80.43,0,0,1-13.35,15.22,12.52,12.52,0,0,0-2.67,2.67c-1.33,1.33-1.87,2.93-.8,4.54,7.21,11.48,10.41,24.55,15.22,36.83a113.7,113.7,0,0,0,5.87,13.08c2.4,5.88,7.47,9.35,11.74,13.62,5.07,5.34,5.07,6.14,1.07,12.28a65.51,65.51,0,0,1-15,16c-7.47,5.87-16.55,6.94-24.29-1.87-6.14-6.67-9.88-14.68-12.81-23-2.4-6.94-4.27-14.42-6.68-21.62-2.93-8.55-6.4-17.09-11.74-24.56-2.4-3.21-5.34-4-8.81-2.94-2.67,1.07-3.74,2.4-3.74,5.07,0,9.61.27,19,.27,28.3,0,2.13.53,3.74,2.94,4.54a19.94,19.94,0,0,1,5.34,2.67c5.87,2.67,8.27,9.07,5.87,15.21a27.38,27.38,0,0,1-3.74,5.87c-3.47,4-6.94,8.28-10.41,12.28A38.57,38.57,0,0,1,255.9,616c-4.27,2.67-8.54,3.21-12.81-.26-2.67-2.14-5.34-4.28-8-6.14-6.41-4.54-13.35-5.34-20.82-2.67a33.11,33.11,0,0,0-6.94,3.47c-1.07.53-1.87,1.06-2.94,1.6-2.4,1.07-5.07,2.67-7.74.27-2.4-2.67-2.67-5.88-1.6-9.08,2.93-9.08,8.81-15.48,17.08-19.75,4.27-2.14,5.87-4.81,5.61-9.35-.27-10.67,0-21.35,0-32,0-12.54.26-25.09.26-37.9,0-10.68,0-21.62-.26-32.3,0-2.94-.54-3.47-3.21-2.67-3.47,1.07-6.67,2.67-10.14,3.2-5.07.27-8.54-3.2-8-8a16.67,16.67,0,0,1,2.94-6.67c5.34-6.67,12-11.48,19.22-15.75a112.72,112.72,0,0,1,60.06-14.68c5.87,0,11.48,0,16,.8C304,429.65,311.69,432.06,318.63,436.33Zm-30.17,39.5a38.68,38.68,0,0,0-.8-5.87c-1.86-8.27-9.34-15.75-17.35-16.82-6.67-1.33-9.61,1.07-9.34,8,0,15.75,0,31.23-.27,46.72a39,39,0,0,0,.27,5.6q.4,3.21,3.2,1.6c2.41-1.6,5.08-3.2,7.48-5.07,8.54-6.41,14.68-14.68,16.28-26.16C288.73,481.71,288.46,478.77,288.46,475.83Z"/><path class="cls-1" d="M536.45,595.69c-4,6.14-8.55,11.74-14.42,16-2.67,1.87-5.07,4.27-8.54,5.34-6.14,2.14-11.21.8-16-2.94-6.14-4.8-9.07-11.74-11.74-18.41-.8-2.14-1.6-4-2.4-5.88-2.41-5.87-4.54-11.74-6.95-17.61-1.33-3.74-2.93-7.21-4.27-11-.8-2.4-1.6-4.8-4-5.87a15.91,15.91,0,0,0-6.14-1.6c-3.47-.27-20.55,0-40.57.53-2.41,0-3.21,1.07-4.54,1.87-1.07.8-1.6,2.67-1.87,3.2-2.14,6.68-3.74,11-4,11.75.53,4,3.47,4,5.34,5.07a20.22,20.22,0,0,1,6.93,1.6,24.48,24.48,0,0,1,3.47,2.14c4,3.73,5.61,10.41,2.14,15.21a81.64,81.64,0,0,1-17.35,19.76c-5.34,4.53-9.61,4.27-15.22-.27l-4-3.21c-9.08-8-18.68-8.54-29.9-2.4-2.4,1.07-4.27,2.94-7.2,3.21-4,.26-6.41-1.87-6.14-6.14a20.9,20.9,0,0,1,2.67-9.08,35.35,35.35,0,0,1,12.81-13.08,31.36,31.36,0,0,1,4-2.4c2.94-1.34,6.14-2.4,9.08-3.47,2.94-1.34,5.6-3.74,8-8.81,3.73-8,33.36-103.57,37.63-111.31-3.47-4.81-18.41,2.67-18.41,2.67a16.17,16.17,0,0,0-3.21,1.33c-3.2,1.6-6.4,1.6-9.61,1.34-3.73-.54-5.6-3.47-4.53-7.21.53-2.94,2.4-5.34,4.27-7.47,4.53-5.34,9.87-9.88,13.61-11.75,10.68-6.14,18.95-9.61,28.56-9.61,0,0,15.75-.27,23.76,8.54,11.21,6.41,29.1,48.85,47.78,93.16,5.34,14.15,10.68,28.3,16.55,42.45,1.87,5.07,6.14,8.54,9.61,12.27,1.34,1.61,2.94,2.94,4.27,4.27C538.05,590.88,538.31,592.48,536.45,595.69ZM458,525.48c-1.34-4-2.67-7.21-3.21-9.07-1.33-2.41-6.14-14.42-13.61-28.83-.8-1.07-1.33-.27-1.6,0-4,11.21-8.54,24.56-12.82,37.37-.26.53-.53.8-.53,1.33-.27,1.07-.8,3.21,2.14,3.47h1.06c14.15-.26,24.56-.53,25.9-.53C459,529,458.77,527.08,458,525.48Z"/><path class="cls-1" d="M565.81,474.76c10.67-13.07,23.75-23.49,37.63-32.56a87,87,0,0,1,27-12c2.66-.8,5.33-.8,8.27-1.07a6.1,6.1,0,0,1,6.41,3.47c1.06,1.87,2.4,3.74,3.47,5.61,4,7.47,10.41,10.67,18.42,10.94,4.53.27,9.07.27,13.34-1.07a13.29,13.29,0,0,1,3.21-.53c5.07-.54,7.47,2.13,6.67,7.2-1.6,8.55-6.67,14.95-13.62,19.76-13.34,9.61-28.29,12.28-44.31,7.74a31.52,31.52,0,0,1-14.68-8.54,15.11,15.11,0,0,1-2.93-2.94c-4.54-4.27-5.08-4.27-10.41-1.07-7.75,4.81-13.08,11.48-16.82,19.76-6.67,16-6.67,32.3-2.4,48.58,2.93,10.68,7.74,20.29,15.21,28.29a40.64,40.64,0,0,0,17.62,12.28c8,2.41,16,3.21,24-.26s11.48-10.15,12.82-18.16c1.33-7.2,1.06-7.2-5.88-9.61-2.93-1.06-5.87-1.86-8.8-2.93-6.14-1.87-12-1.6-17.09,2.67a14.19,14.19,0,0,1-5.87,3.2c-4.54,1.34-7.74-.8-7.74-5.61a12.55,12.55,0,0,1,2.67-8.54c8.27-12,19.48-19.22,33.9-21.09a30.9,30.9,0,0,1,15.48,1.61c6.94,2.4,13.88,4.27,21.35,3.73a15.37,15.37,0,0,1,3.47.54c2.94.53,4.28,2.13,4.81,5.07.27,3.2-.53,6.14-.8,9.34-1.07,16.55-4.81,32.57-12.81,47.25-9.61,17.35-24.3,28-44,31a79.12,79.12,0,0,1-37.1-2.13,66.35,66.35,0,0,1-35.5-24.56c-13.89-18.68-19.76-39.51-17.89-62.73a68,68,0,0,1,4-18.42A103.13,103.13,0,0,1,565.81,474.76Z"/><path class="cls-1" d="M827.13,562.32c-.27,6.94-.27,14.15-.53,19.22,0,5.07-6.67,8.27-11,10.41C802.31,598.09,771.88,613.3,766,617c-7.2,4.54-19-3.74-19-3.74a49.86,49.86,0,0,0-10.14-6.4,19.73,19.73,0,0,0-16-.54c-5.07,1.61-9.07,5.07-14.15,7.21-4.53,1.87-8-.27-7.74-5.34.27-9.34,4.81-16.28,11.75-21.89,0,0,24.29-20.28,57.39-13.61,2.94,1.07,6.14,2.14,8.54,4.54a14.5,14.5,0,0,1,1.87,2.4l.8-1.07a6.91,6.91,0,0,0,4.27-4.8v-8.28c-.53-10.94-21.35-19.48-30.7-23.75-5.6-1.34-32-16-38.43-21.09-15-11.48-15.49-24.83-15.49-24.83V484.64c.27-6.94.27-14.15.54-19.22,0-4.8,6.67-8.27,10.94-10.41,13.08-6.14,43.78-21.35,49.65-25.09,7.21-4.54,19,3.74,19,3.74a67.12,67.12,0,0,0,10.15,6.67,22,22,0,0,0,16,.53c5.07-1.86,9.08-5.33,13.88-7.47,4.81-1.87,8,.27,8,5.61-.27,9.07-5.07,16-11.74,21.88,0,0-24.29,20-57.39,13.35-2.94-1.07-6.14-2.13-8.55-4.54a14.42,14.42,0,0,1-1.86-2.4l-1.07,1.07a6.57,6.57,0,0,0-4,4.8v8.55c0,8.54,17.62,17.08,24,20.82,5.6,1.33,38.7,18.68,45.11,23.75,15,11.48,15.48,24.83,15.48,24.83Z"/><path class="cls-2" d="M688.48,6.74A76.06,76.06,0,0,1,684.83,15c-4.19,8.23-8.78,16.28-12.65,24.65-4.2,9.07-7.9,18.37-11.55,27.68-4,10.27-8.17,20.54-11.43,31.06-4.29,13.87-12.44,39.87-13.07,40.68-6.42,11.23-60.16,20-125.61,20.18h-.11c-65.45-.18-119.19-8.95-125.61-20.18-.63-.81-8.79-26.81-13.07-40.68-3.26-10.52-7.42-20.79-11.43-31.06C356.65,58,353,48.73,348.75,39.66c-3.87-8.37-8.46-16.42-12.66-24.65a78,78,0,0,1-3.64-8.27,2.66,2.66,0,0,1,1.17-2.29A48.37,48.37,0,0,1,356.79,1c6.47.76,12.85,3.54,17.11,8.45A19.47,19.47,0,0,1,378.28,26c-.5,2.74-4.11,9.93,1.41,9.2,6.4-.83,13.23-1.66,19.09,1.57a23,23,0,0,1,10.55,12.94c3.53,11-.41,29.12-14.52,29.48-4.27.11-3.4,2.17-1.74,5a59.24,59.24,0,0,0,6.33,9.37,55.84,55.84,0,0,0,17.08,13.29c10.42,5.3,22.22,7.53,33.91,7.53,8.26,0,16.73-1.38,23.92-5.65,7.59-4.5,12.85-12.27,17.42-19.63,1.11-1.8,2.22-4.87-.55-5.73-2-.61-5.95,1.33-8.24,1.37A21.58,21.58,0,0,1,462.35,55a22,22,0,0,1,10.33-11.1c4.74-2.44,9.44-1.43,14.25-3,3.13-1,1.1-3.55,0-6.14-4.4-10.13-2.11-21.42,7.15-28.93A24.57,24.57,0,0,1,510.41,0h.11a24.58,24.58,0,0,1,16.36,5.86c9.26,7.51,11.55,18.8,7.15,28.93-1.14,2.59-3.16,5.12,0,6.14,4.8,1.55,9.5.54,14.24,3a21.54,21.54,0,0,1,5.67,34.49A22.16,22.16,0,0,1,538,84.77c-2.28,0-6.25-2-8.23-1.37-2.77.86-1.67,3.93-.55,5.73,4.57,7.36,9.83,15.13,17.41,19.63,7.19,4.27,15.67,5.64,23.93,5.65,11.69,0,23.49-2.23,33.91-7.53a55.8,55.8,0,0,0,17.07-13.29,60,60,0,0,0,6.34-9.37c1.66-2.85,2.53-4.91-1.75-5-14.11-.36-18-18.51-14.51-29.48a23,23,0,0,1,10.55-12.94c5.86-3.23,12.69-2.4,19.09-1.57,5.52.73,1.91-6.46,1.4-9.2A19.53,19.53,0,0,1,647,9.44c4.27-4.91,10.65-7.69,17.12-8.45a48.37,48.37,0,0,1,23.17,3.46A2.66,2.66,0,0,1,688.48,6.74Z"/><path class="cls-2" d="M535.15,695.9c-5.32,6.09-18.88,21.65-24.68,28.3l-22-25.26-2.65-3c-9.23-10.57-3.11-29,9.57-29,4.42,0,8.83,2.25,12.41,6.35l2.65,3,.06.06,2.7-3.09c7.62-8.72,18-8.16,23.27-.21A19.28,19.28,0,0,1,535.15,695.9Z"/><path class="cls-3" d="M454.66,697.56H195.34a2,2,0,0,1,0-4H454.66a2,2,0,1,1,0,4Z"/><path class="cls-3" d="M825.59,697.56H566.27a2,2,0,0,1,0-4H825.59a2,2,0,0,1,0,4Z"/></g></g></svg>